<svg fill="none" height="17" viewBox="0 0 17 17" width="17" xmlns="http://www.w3.org/2000/svg">
	<path d="M8.58105 16C12.7232 16 16.0811 12.6422 16.0811 8.5C16.0811 4.35787 12.7232 1 8.58105 1C4.43892 1 1.08105 4.35787 1.08105 8.5C1.08105 12.6422 4.43892 16 8.58105 16Z" stroke="white"/>
	<path d="M10.9997 6.08135C10.8913 5.97288 10.7154 5.97288 10.6069 6.08135L8.58105 8.10723L6.55517 6.08135C6.44671 5.97288 6.27086 5.97288 6.1624 6.08135C6.05394 6.18981 6.05394 6.36566 6.1624 6.47412L8.18828 8.5L6.16241 10.5259C6.05394 10.6343 6.05394 10.8102 6.16241 10.9187C6.27087 11.0271 6.44672 11.0271 6.55518 10.9187L8.58105 8.89277L10.6069 10.9187C10.7154 11.0271 10.8913 11.0271 10.9997 10.9187C11.1082 10.8102 11.1082 10.6343 10.9997 10.5259L8.97382 8.5L10.9997 6.47412C11.1082 6.36566 11.1082 6.18981 10.9997 6.08135Z" fill="white"/>
</svg>
