<svg fill="none" height="94" viewBox="0 0 89 94" width="89" xmlns="http://www.w3.org/2000/svg">
	<path d="M43.3383 89.3364C31.149 82.7647 20.5449 76.4677 11.5257 70.4454C2.50659 64.4231 -1.22317 55.9204 0.336432 44.9375C1.89603 33.9545 7.73568 24.8692 17.8553 17.6815C27.975 10.4937 40.5421 5.24721 55.5566 1.9419C70.5711 -1.36341 79.174 3.50151 81.3654 16.5367C83.5568 29.5718 85.5686 41.282 87.4008 51.6674C89.233 62.0527 85.3946 72.5701 75.8856 83.2197C66.3767 93.8692 55.5276 95.9081 43.3383 89.3364Z" fill="white" fill-opacity="0.3"/>
	<path d="M47.3853 4.54128C24.743 4.35062 6.54204 22.5523 6.73362 45.1946C6.92521 67.8369 25.4368 86.3477 48.0791 86.5383C70.7214 86.729 88.9223 68.5273 88.7307 45.8851C88.5391 23.2428 70.0275 4.73195 47.3853 4.54128Z" fill="white"/>
</svg>
