<svg fill="none" height="55" viewBox="0 0 158 55" width="158" xmlns="http://www.w3.org/2000/svg">
	<path clip-rule="evenodd" d="M-33.9997 20.1305L-23.2797 19.1813C-12.7197 18.2322 8.7203 16.3339 30.0003 21.0796C51.2803 25.8254 72.7203 37.2152 94.0003 39.1135C115.28 41.0118 136.72 33.4186 147.28 29.622L158 25.8254L158 59.9949L147.28 59.9949C136.72 59.9949 115.28 59.9949 94.0003 59.9949C72.7203 59.9949 51.2803 59.9949 30.0003 59.9949C8.72029 59.9949 -12.7197 59.9949 -23.2797 59.9949L-33.9997 59.9949L-33.9997 20.1305Z" fill="white" fill-opacity="0.2" fill-rule="evenodd"/>
	<path clip-rule="evenodd" d="M-8.00098 2.7403L3.44486 1.51996C14.7199 0.299618 37.6115 -2.14106 60.3324 3.96064C83.0532 10.0623 105.945 24.7064 128.666 27.1471C151.387 29.5878 174.278 19.825 185.553 14.9437L196.999 10.0623L196.999 53.9945L185.553 53.9945C174.278 53.9945 151.387 53.9945 128.666 53.9945C105.945 53.9945 83.0532 53.9945 60.3324 53.9945C37.6115 53.9945 14.7199 53.9945 3.44485 53.9945L-8.00098 53.9945L-8.00098 2.7403Z" fill="white" fill-opacity="0.1" fill-rule="evenodd"/>
</svg>
