<svg fill="none" height="79" viewBox="0 0 119 79" width="119" xmlns="http://www.w3.org/2000/svg">
	<path d="M114.84 53.66V57.95" stroke="#4A5059" stroke-linecap="round" stroke-linejoin="round"/>
	<path d="M112.69 55.8H116.99" stroke="#4A5059" stroke-linecap="round" stroke-linejoin="round"/>
	<path d="M79.94 28.5C71.57 28.5 63.07 28.16 55.12 25.95C47.17 23.74 40.18 19.55 33.75 14.68C29.57 11.52 25.75 8.99999 20.33 9.37999C15.0172 9.66026 9.93615 11.645 5.84001 15.04C-1.06999 21.09 -0.0299895 32.27 2.73001 40.14C6.89001 51.99 19.5 60.23 30.27 65.59C42.68 71.79 56.27 75.39 69.98 77.46C81.98 79.28 97.35 80.6 107.73 72.78C117.27 65.59 119.88 49.18 117.55 38.1C116.983 34.8235 115.236 31.8677 112.64 29.79C105.94 24.89 95.95 28.16 88.43 28.32C85.63 28.39 82.79 28.5 79.94 28.5Z" fill="#272933"/>
	<path d="M106.2 53.14V57.43" stroke="#4A5059" stroke-linecap="round" stroke-linejoin="round"/>
	<path d="M104.06 55.28H108.35" stroke="#4A5059" stroke-linecap="round" stroke-linejoin="round"/>
	<path d="M30.98 28.73V33.03" stroke="#4A5059" stroke-linecap="round" stroke-linejoin="round"/>
	<path d="M28.83 30.88H33.12" stroke="#4A5059" stroke-linecap="round" stroke-linejoin="round"/>
	<path d="M57.58 10.48C58.1212 10.48 58.56 10.0413 58.56 9.50002C58.56 8.95878 58.1212 8.52002 57.58 8.52002C57.0387 8.52002 56.6 8.95878 56.6 9.50002C56.6 10.0413 57.0387 10.48 57.58 10.48Z" fill="#4A5059"/>
	<path d="M21.03 6.37999C21.5713 6.37999 22.01 5.94123 22.01 5.39999C22.01 4.85875 21.5713 4.41998 21.03 4.41998C20.4888 4.41998 20.05 4.85875 20.05 5.39999C20.05 5.94123 20.4888 6.37999 21.03 6.37999Z" fill="#4A5059"/>
	<path d="M48.59 31.23H44.78V57.57H48.59V31.23Z" fill="#2D333E" stroke="#4A5059" stroke-miterlimit="10"/>
	<path d="M44.7041 33.145L46.5192 36.4949L68.544 24.5613L66.7289 21.2114L44.7041 33.145Z" fill="#2D333E" stroke="#4A5059" stroke-miterlimit="10"/>
	<path d="M43.56 55.3H49.39C52.3613 55.3 55.2111 56.4797 57.3131 58.5798C59.4151 60.6799 60.5973 63.5286 60.6 66.5V67.32H32.35V66.5C32.3526 63.5286 33.5348 60.6799 35.6368 58.5798C37.7388 56.4797 40.5886 55.3 43.56 55.3Z" fill="#2D333E" stroke="#4A5059" stroke-miterlimit="10"/>
	<path d="M64.45 67.45H28.5" stroke="#4A5059" stroke-miterlimit="10"/>
	<path d="M46.91 40.93C50.5607 40.93 53.52 37.9706 53.52 34.32C53.52 30.6694 50.5607 27.71 46.91 27.71C43.2594 27.71 40.3 30.6694 40.3 34.32C40.3 37.9706 43.2594 40.93 46.91 40.93Z" fill="#2D333E" stroke="#4A5059" stroke-miterlimit="10"/>
	<path d="M83.68 59.5C83.52 59.45 82.24 59.56 82.07 59.5C80.92 59.07 80.52 60.5 79.45 59.92C72.393 56.2954 66.9886 50.1102 64.3433 42.6308C61.6981 35.1514 62.0122 26.9436 65.2213 19.6883C68.4305 12.4329 74.2918 6.67879 81.6052 3.60418C88.9186 0.529579 97.1307 0.367093 104.56 3.15C104.78 3.24 104.22 4.47 104.44 4.56L83.68 59.5Z" fill="#4A5059" stroke="#4A5059" stroke-miterlimit="10"/>
	<path d="M103.57 35.88C98.76 48.74 91.64 58.56 85.87 61.09C85.0942 61.4451 84.261 61.6585 83.41 61.72C82.7609 61.7593 82.1106 61.6639 81.5 61.44C81.028 61.2595 80.5889 61.0027 80.2 60.68C79.982 60.4955 79.7781 60.2949 79.59 60.08C75.59 55.52 76.25 42.08 81.59 27.68C86.89 13.5 95 3.01 101.02 1.93C101.393 1.86073 101.771 1.83057 102.15 1.84C102.658 1.84852 103.161 1.93972 103.64 2.11C104.35 2.35366 104.989 2.76935 105.5 3.32C106.029 3.88715 106.458 4.53968 106.77 5.25C109.5 10.93 108.38 23.02 103.57 35.88Z" fill="#2D333E" stroke="#4A5059" stroke-miterlimit="10"/>
	<path d="M82.1801 27.07L113.43 38.48" stroke="#4A5059" stroke-miterlimit="10"/>
	<path d="M111.5 42.09C113.908 42.09 115.86 40.138 115.86 37.73C115.86 35.322 113.908 33.37 111.5 33.37C109.092 33.37 107.14 35.322 107.14 37.73C107.14 40.138 109.092 42.09 111.5 42.09Z" fill="#4A5059" stroke="#4A5059" stroke-miterlimit="10"/>
	<path d="M38.6 14.38C38.5974 15.4896 38.1548 16.5527 37.3693 17.3363C36.5838 18.12 35.5195 18.56 34.41 18.56H24.14C23.3444 18.56 22.5813 18.244 22.0187 17.6813C21.4561 17.1187 21.14 16.3557 21.14 15.56C21.14 14.7644 21.4561 14.0013 22.0187 13.4387C22.5813 12.8761 23.3444 12.56 24.14 12.56C24.5305 12.5604 24.9174 12.6351 25.28 12.78C25.2435 12.5889 25.2268 12.3946 25.23 12.2C25.226 11.4157 25.5067 10.6565 26.0199 10.0634C26.5332 9.47026 27.2442 9.08346 28.021 8.97475C28.7977 8.86605 29.5876 9.04283 30.2439 9.47228C30.9003 9.90174 31.3786 10.5547 31.59 11.31C32.3558 10.598 33.3643 10.2046 34.41 10.21C35.517 10.2126 36.5782 10.6522 37.3629 11.4331C38.1475 12.214 38.5921 13.2731 38.6 14.38Z" fill="#4A5059" stroke="#4A5059" stroke-miterlimit="10"/>
</svg>
