<svg fill="none" height="99" viewBox="0 0 119 99" width="119" xmlns="http://www.w3.org/2000/svg">
	<path d="M79.79 45C71.41 45 62.9 44.66 54.93 42.44C46.96 40.22 40 36 33.53 31.17C29.33 28 25.53 25.48 20.08 25.86C14.7597 26.1417 9.67167 28.1299 5.56995 31.53C-1.36005 37.59 -0.310045 48.79 2.44995 56.68C6.60995 68.55 19.28 76.79 30 82.17C42.43 88.38 56.08 91.98 69.78 94.06C81.78 95.88 97.1899 97.21 107.59 89.37C117.15 82.17 119.77 65.73 117.43 54.62C116.856 51.3407 115.107 48.3829 112.51 46.3C105.8 41.39 95.79 44.67 88.25 44.84C85.49 44.9 82.65 45 79.79 45Z" fill="#272933"/>
	<path d="M105.12 13.79C105.661 13.79 106.1 13.3513 106.1 12.81C106.1 12.2688 105.661 11.83 105.12 11.83C104.579 11.83 104.14 12.2688 104.14 12.81C104.14 13.3513 104.579 13.79 105.12 13.79Z" fill="#4A5059"/>
	<path d="M39.93 5.58C40.4712 5.58 40.91 5.14123 40.91 4.59999C40.91 4.05876 40.4712 3.62 39.93 3.62C39.3887 3.62 38.95 4.05876 38.95 4.59999C38.95 5.14123 39.3887 5.58 39.93 5.58Z" fill="#4A5059"/>
	<path d="M51.78 98.89C52.3213 98.89 52.76 98.4512 52.76 97.91C52.76 97.3688 52.3213 96.93 51.78 96.93C51.2388 96.93 50.8 97.3688 50.8 97.91C50.8 98.4512 51.2388 98.89 51.78 98.89Z" fill="#4A5059"/>
	<path d="M77.9301 0.920013V5.22001" stroke="#4A5059" stroke-linecap="round" stroke-linejoin="round"/>
	<path d="M75.78 3.07001H80.09" stroke="#4A5059" stroke-linecap="round" stroke-linejoin="round"/>
	<path d="M7.87 19.02V23.32" stroke="#4A5059" stroke-linecap="round" stroke-linejoin="round"/>
	<path d="M5.71997 21.17H10.02" stroke="#4A5059" stroke-linecap="round" stroke-linejoin="round"/>
	<path d="M11.11 78.93V83.24" stroke="#4A5059" stroke-linecap="round" stroke-linejoin="round"/>
	<path d="M8.95996 81.08H13.27" stroke="#4A5059" stroke-linecap="round" stroke-linejoin="round"/>
	<path d="M99.96 34.84V39.14" stroke="#4A5059" stroke-linecap="round" stroke-linejoin="round"/>
	<path d="M97.8101 36.99H102.12" stroke="#4A5059" stroke-linecap="round" stroke-linejoin="round"/>
	<path d="M69.9937 9.75879L19.8007 16.3498C16.5474 16.777 14.2565 19.7606 14.6837 23.0138L22.3342 81.2753C22.7613 84.5285 25.7449 86.8195 28.9982 86.3923L79.1912 79.8013C82.4444 79.3741 84.7353 76.3905 84.3082 73.1373L76.6577 14.8758C76.2305 11.6226 73.2469 9.3316 69.9937 9.75879Z" fill="#4A5059"/>
	<path d="M84.62 18.3H33.92C30.6339 18.3 27.97 20.9639 27.97 24.25V83.1C27.97 86.3861 30.6339 89.05 33.92 89.05H84.62C87.9061 89.05 90.57 86.3861 90.57 83.1V24.25C90.57 20.9639 87.9061 18.3 84.62 18.3Z" fill="#2D333E" stroke="#4A5059" stroke-miterlimit="10"/>
	<path d="M35.53 64.86L45.68 48.33C45.7777 48.0877 45.9456 47.8802 46.1621 47.734C46.3786 47.5879 46.6338 47.5098 46.895 47.5098C47.1562 47.5098 47.4115 47.5879 47.628 47.734C47.8445 47.8802 48.0124 48.0877 48.11 48.33L53.86 57.7C53.9577 57.9423 54.1256 58.1498 54.3421 58.296C54.5586 58.4421 54.8138 58.5202 55.075 58.5202C55.3362 58.5202 55.5915 58.4421 55.808 58.296C56.0245 58.1498 56.1924 57.9423 56.29 57.7L66.13 41.7C66.2277 41.4577 66.3956 41.2502 66.6121 41.104C66.8286 40.9579 67.0838 40.8798 67.345 40.8798C67.6063 40.8798 67.8615 40.9579 68.078 41.104C68.2945 41.2502 68.4624 41.4577 68.56 41.7L83 65.2L35.53 64.86Z" fill="#2D333E" stroke="#4A5059" stroke-miterlimit="10"/>
	<path d="M55.7501 46.11C57.5118 46.11 58.9401 44.6818 58.9401 42.92C58.9401 41.1582 57.5118 39.73 55.7501 39.73C53.9883 39.73 52.5601 41.1582 52.5601 42.92C52.5601 44.6818 53.9883 46.11 55.7501 46.11Z" fill="#2D333E" stroke="#4A5059" stroke-miterlimit="10"/>
</svg>
