<svg fill="none" height="109" viewBox="0 0 119 109" width="119" xmlns="http://www.w3.org/2000/svg">
	<path d="M79.94 40.42C71.56 40.42 63.05 40.08 55.08 37.86C47.26 35.69 40.08 31.48 33.68 26.61C29.48 23.44 25.68 20.92 20.23 21.3C14.9091 21.5788 9.82023 23.5674 5.71998 26.97C-1.21002 33.03 -0.160023 44.23 2.60998 52.11C6.76998 63.99 19.43 72.23 30.19 77.6C42.62 83.81 56.27 87.42 69.97 89.5C81.97 91.32 97.39 92.64 107.78 84.81C117.34 77.61 119.96 61.16 117.62 50.06C117.053 46.7781 115.303 43.8179 112.7 41.74C105.99 36.83 95.99 40.11 88.45 40.27C85.65 40.34 82.8 40.4 79.94 40.42Z" fill="#272933"/>
	<path d="M59.45 108.95C79.7244 108.95 96.16 107.925 96.16 106.66C96.16 105.395 79.7244 104.37 59.45 104.37C39.1756 104.37 22.74 105.395 22.74 106.66C22.74 107.925 39.1756 108.95 59.45 108.95Z" fill="#272933"/>
	<path d="M111.93 26.29C112.471 26.29 112.91 25.8512 112.91 25.31C112.91 24.7687 112.471 24.33 111.93 24.33C111.389 24.33 110.95 24.7687 110.95 25.31C110.95 25.8512 111.389 26.29 111.93 26.29Z" fill="#4A5059"/>
	<path d="M69.6699 19.31C70.2112 19.31 70.6499 18.8712 70.6499 18.33C70.6499 17.7887 70.2112 17.35 69.6699 17.35C69.1287 17.35 68.6899 17.7887 68.6899 18.33C68.6899 18.8712 69.1287 19.31 69.6699 19.31Z" fill="#4A5059"/>
	<path d="M30.52 82.85V87.16" stroke="#4A5059" stroke-linecap="round" stroke-linejoin="round"/>
	<path d="M28.37 85H32.67" stroke="#4A5059" stroke-linecap="round" stroke-linejoin="round"/>
	<path d="M14.75 1V5.31" stroke="#4A5059" stroke-linecap="round" stroke-linejoin="round"/>
	<path d="M12.6 3.15002H16.9" stroke="#4A5059" stroke-linecap="round" stroke-linejoin="round"/>
	<path d="M92.7 23.16V27.46" stroke="#4A5059" stroke-linecap="round" stroke-linejoin="round"/>
	<path d="M90.55 25.3101H94.86" stroke="#4A5059" stroke-linecap="round" stroke-linejoin="round"/>
	<path d="M53.78 80.73C58.3997 87.1887 65.3917 91.5523 73.2233 92.8644C81.055 94.1766 89.0874 92.3302 95.56 87.73C96.3617 87.1648 97.1328 86.5572 97.87 85.91L109.8 89.5L105.23 76.14C107.511 71.3647 108.489 66.0709 108.063 60.7958C107.637 55.5207 105.824 50.4521 102.807 46.1043C99.7894 41.7565 95.6757 38.2842 90.8829 36.0398C86.0902 33.7954 80.7891 32.8588 75.5174 33.325C70.2458 33.7912 65.1913 35.6436 60.8668 38.6943C56.5424 41.745 53.1019 45.8853 50.8944 50.6952C48.687 55.5051 47.7913 60.8133 48.298 66.0811C48.8048 71.349 50.6961 76.3891 53.78 80.69V80.73Z" fill="#2D333E" stroke="#4A5059" stroke-miterlimit="10"/>
	<path d="M88.5499 65.31C89.6435 65.31 90.5299 64.4235 90.5299 63.33C90.5299 62.2365 89.6435 61.35 88.5499 61.35C87.4564 61.35 86.5699 62.2365 86.5699 63.33C86.5699 64.4235 87.4564 65.31 88.5499 65.31Z" fill="#4A5059"/>
	<path d="M79 65.31C80.0935 65.31 80.98 64.4235 80.98 63.33C80.98 62.2365 80.0935 61.35 79 61.35C77.9065 61.35 77.02 62.2365 77.02 63.33C77.02 64.4235 77.9065 65.31 79 65.31Z" fill="#4A5059"/>
	<path d="M69.46 65.31C70.5535 65.31 71.44 64.4235 71.44 63.33C71.44 62.2365 70.5535 61.35 69.46 61.35C68.3665 61.35 67.48 62.2365 67.48 63.33C67.48 64.4235 68.3665 65.31 69.46 65.31Z" fill="#4A5059"/>
	<path d="M63.56 60.33C58.9403 66.7886 51.9484 71.1523 44.1167 72.4644C36.2851 73.7766 28.2526 71.9302 21.78 67.33C20.98 66.75 20.2001 66.15 19.4701 65.51L7.55005 69.13L12.1101 55.77C9.82992 50.9942 8.85368 45.7003 9.2804 40.4254C9.70712 35.1505 11.5216 30.0823 14.5398 25.7352C17.5579 21.388 21.6723 17.9167 26.4654 15.6733C31.2585 13.4299 36.5597 12.4943 41.8312 12.9615C47.1027 13.4287 52.1568 15.2821 56.4806 18.3335C60.8044 21.3849 64.2441 25.5258 66.4507 30.336C68.6572 35.1462 69.552 40.4545 69.0444 45.7222C68.5367 50.99 66.6446 56.0297 63.56 60.33Z" fill="#2D333E" stroke="#4A5059" stroke-miterlimit="10"/>
	<path d="M30.64 48.73C31.5274 47.2312 32.7866 45.9867 34.2958 45.1171C35.805 44.2474 37.5131 43.782 39.2549 43.7659C40.9967 43.7498 42.7131 44.1836 44.2381 45.0252C45.7631 45.8668 47.0451 47.0878 47.96 48.57" stroke="#4A5059" stroke-linecap="round" stroke-linejoin="round"/>
	<path d="M50.51 39.95C51.2887 39.95 51.92 39.3187 51.92 38.54C51.92 37.7613 51.2887 37.13 50.51 37.13C49.7313 37.13 49.1 37.7613 49.1 38.54C49.1 39.3187 49.7313 39.95 50.51 39.95Z" fill="#4A5059"/>
	<path d="M28.18 39.95C28.9587 39.95 29.59 39.3187 29.59 38.54C29.59 37.7613 28.9587 37.13 28.18 37.13C27.4013 37.13 26.77 37.7613 26.77 38.54C26.77 39.3187 27.4013 39.95 28.18 39.95Z" fill="#4A5059"/>
</svg>
