<svg fill="none" height="104" viewBox="0 0 119 104" width="119" xmlns="http://www.w3.org/2000/svg">
	<path d="M16.35 76.43C16.8912 76.43 17.33 75.9912 17.33 75.45C17.33 74.9087 16.8912 74.47 16.35 74.47C15.8088 74.47 15.37 74.9087 15.37 75.45C15.37 75.9912 15.8088 76.43 16.35 76.43Z" fill="#4A5059"/>
	<path d="M79.9001 35.5C71.5301 35.5 63.0101 35.16 55.0401 32.94C47.0701 30.72 40.0401 26.56 33.6401 21.69C29.4501 18.52 25.6401 15.99 20.1901 16.37C14.8716 16.6601 9.78614 18.6473 5.68006 22.04C-1.24994 28.1 -0.199941 39.31 2.57006 47.19C6.73006 59.06 19.3901 67.31 30.1501 72.68C42.5801 78.89 56.2301 82.5 69.9301 84.57C81.9301 86.4 97.3501 87.72 107.75 79.88C117.3 72.68 119.92 56.24 117.58 45.14C117.012 41.8609 115.266 38.9021 112.67 36.82C105.96 31.91 95.9501 35.19 88.4101 35.35C85.6101 35.39 82.7601 35.5 79.9001 35.5Z" fill="#272933"/>
	<path d="M62.4701 85.79C68.7053 85.79 73.7601 80.7353 73.7601 74.5C73.7601 68.2647 68.7053 63.21 62.4701 63.21C56.2348 63.21 51.1801 68.2647 51.1801 74.5C51.1801 80.7353 56.2348 85.79 62.4701 85.79Z" fill="#4A5059"/>
	<path d="M50.7889 4.02167C52.0496 3.74058 53.3702 3.97179 54.4604 4.66443C55.5506 5.35708 56.321 6.45443 56.6021 7.71508L58.4062 15.8064L48.8997 17.9261L47.0955 9.83481C46.8144 8.57417 47.0456 7.25349 47.7383 6.16331C48.4309 5.07314 49.5283 4.30277 50.7889 4.02167Z" fill="#2D333E" stroke="#4A5059" stroke-miterlimit="10"/>
	<path d="M95.31 67.5L37.42 80.4C37.0604 80.4807 36.686 80.4662 36.3337 80.3581C35.9814 80.25 35.6634 80.0519 35.411 79.7833C35.1586 79.5148 34.9806 79.1851 34.8945 78.8268C34.8084 78.4685 34.8172 78.0939 34.92 77.74L35.16 76.91C37.16 69.82 38.9 62.01 37.3 54.81L33.88 39.44C31 26.5 38.74 13.38 51.58 10.2C54.7115 9.4257 57.9663 9.28505 61.153 9.78632C64.3397 10.2876 67.3941 11.4207 70.1367 13.119C72.8793 14.8173 75.2549 17.0466 77.1239 19.6759C78.9928 22.3052 80.3175 25.2815 81.02 28.43L84.55 44.26C86.16 51.46 91.02 57.82 95.88 63.36L96.45 64.01C96.6954 64.2881 96.864 64.6254 96.939 64.9886C97.0141 65.3518 96.993 65.7284 96.8778 66.0809C96.7626 66.4335 96.5574 66.7499 96.2824 66.9988C96.0074 67.2477 95.6722 67.4204 95.31 67.5Z" fill="#2D333E" stroke="#4A5059" stroke-miterlimit="10"/>
	<path d="M52.5 57.59C52.4842 55.2543 53.2689 52.9837 54.7235 51.1562C56.1782 49.3287 58.2149 48.0546 60.4946 47.546C62.7743 47.0375 65.1594 47.3252 67.2528 48.3612C69.3463 49.3972 71.0216 51.119 72 53.24" stroke="#4A5059" stroke-linecap="round" stroke-linejoin="round"/>
	<path d="M70.3501 41.36C71.1343 41.36 71.7701 40.7243 71.7701 39.94C71.7701 39.1558 71.1343 38.52 70.3501 38.52C69.5658 38.52 68.9301 39.1558 68.9301 39.94C68.9301 40.7243 69.5658 41.36 70.3501 41.36Z" fill="#4A5059"/>
	<path d="M48.33 46.27C49.1143 46.27 49.75 45.6342 49.75 44.85C49.75 44.0657 49.1143 43.43 48.33 43.43C47.5458 43.43 46.91 44.0657 46.91 44.85C46.91 45.6342 47.5458 46.27 48.33 46.27Z" fill="#4A5059"/>
	<path d="M74.81 2.50999C75.3512 2.50999 75.79 2.07123 75.79 1.52999C75.79 0.98875 75.3512 0.549988 74.81 0.549988C74.2687 0.549988 73.83 0.98875 73.83 1.52999C73.83 2.07123 74.2687 2.50999 74.81 2.50999Z" fill="#4A5059"/>
	<path d="M16.35 76.43C16.8912 76.43 17.33 75.9912 17.33 75.45C17.33 74.9087 16.8912 74.47 16.35 74.47C15.8088 74.47 15.37 74.9087 15.37 75.45C15.37 75.9912 15.8088 76.43 16.35 76.43Z" fill="#4A5059"/>
	<path d="M101.89 25.2V29.5" stroke="#4A5059" stroke-linecap="round" stroke-linejoin="round"/>
	<path d="M99.73 27.35H104.04" stroke="#4A5059" stroke-linecap="round" stroke-linejoin="round"/>
	<path d="M103.85 89.94V94.24" stroke="#4A5059" stroke-linecap="round" stroke-linejoin="round"/>
	<path d="M101.7 92.09H106" stroke="#4A5059" stroke-linecap="round" stroke-linejoin="round"/>
	<path d="M28.67 8.90002V13.2" stroke="#4A5059" stroke-linecap="round" stroke-linejoin="round"/>
	<path d="M26.52 11.05H30.82" stroke="#4A5059" stroke-linecap="round" stroke-linejoin="round"/>
	<path d="M59.82 104.01C80.0944 104.01 96.53 102.985 96.53 101.72C96.53 100.455 80.0944 99.43 59.82 99.43C39.5456 99.43 23.11 100.455 23.11 101.72C23.11 102.985 39.5456 104.01 59.82 104.01Z" fill="#272933"/>
	<path d="M94.89 22.76C94.8874 25.8012 93.6781 28.7171 91.5276 30.8676C89.3772 33.018 86.4613 34.2273 83.42 34.23C83.0459 34.2302 82.672 34.2102 82.3 34.17L78.9 39.72L77.84 32.77C76.0656 31.7934 74.5813 30.3644 73.5382 28.6282C72.4951 26.892 71.9303 24.9106 71.9013 22.8854C71.8723 20.8601 72.3801 18.8633 73.3731 17.098C74.3661 15.3326 75.8088 13.8617 77.5546 12.8348C79.3004 11.8078 81.287 11.2615 83.3125 11.2513C85.3379 11.2411 87.3299 11.7674 89.0859 12.7768C90.842 13.7861 92.2994 15.2424 93.3101 16.9977C94.3208 18.753 94.8487 20.7446 94.84 22.77L94.89 22.76Z" fill="#2D333E" stroke="#4A5059" stroke-miterlimit="10"/>
	<path d="M78.52 23.92C79.1606 23.92 79.68 23.4006 79.68 22.76C79.68 22.1193 79.1606 21.6 78.52 21.6C77.8793 21.6 77.36 22.1193 77.36 22.76C77.36 23.4006 77.8793 23.92 78.52 23.92Z" fill="#4A5059"/>
	<path d="M83.42 23.92C84.0607 23.92 84.58 23.4006 84.58 22.76C84.58 22.1193 84.0607 21.6 83.42 21.6C82.7794 21.6 82.26 22.1193 82.26 22.76C82.26 23.4006 82.7794 23.92 83.42 23.92Z" fill="#4A5059"/>
	<path d="M88.32 23.92C88.9607 23.92 89.48 23.4006 89.48 22.76C89.48 22.1193 88.9607 21.6 88.32 21.6C87.6794 21.6 87.16 22.1193 87.16 22.76C87.16 23.4006 87.6794 23.92 88.32 23.92Z" fill="#4A5059"/>
</svg>
